#!OML:ASF E:\Steps\Project 1\Capture day 1\Session 2\Subject.ASF
:FULLY-SPECIFIED
:DEGREES
318
root 11.6662 17.149 17.4835 -152.383 0.0180102 179.123
lowerback -23.855 -3.63316 -8.5245
upperback 1.98478 -2.36973 -1.11999
thorax 16.1607 -1.81338 2.6572
lowerneck -1.07211 -2.33664 -1.24631
upperneck 24.837 -1.8416 4.60678
head 7.86927 0.242855 1.7303
rclavicle -3.4191e-014 -1.19271e-014
rhumerus -44.4344 -15.372 -72.7857
rradius 41.0377
rwrist -4.05901
rhand -6.49514 -51.4661
rfingers 7.12502
rthumb 19.3563 -80.5228
lclavicle -3.4191e-014 -1.19271e-014
lhumerus -30.156 2.13864 78.7288
lradius 33.2162
lwrist 2.93531
lhand -22.9554 -11.3076
lfingers 7.12502
lthumb 3.48614 18.6437
rfemur -30.1501 8.57543 17.1013
rtibia 13.9795
rfoot -19.5679 -7.54414
rtoes -28.0085
lfemur -25.9765 -5.7114 -22.653
ltibia 5.66569
lfoot -3.22726 -7.26056
ltoes -18.1595
319
root 11.6659 17.1463 17.4723 -152.362 -0.0101878 179.068
lowerback -23.9732 -3.57163 -8.47195
upperback 1.91324 -2.30286 -1.06572
thorax 16.1331 -1.78031 2.71549
lowerneck -1.02402 -2.35008 -1.38948
upperneck 24.8326 -1.84194 4.62107
head 7.86079 0.233719 1.76006
rclavicle 1.59028e-015 -3.57812e-014
rhumerus -44.3041 -15.4079 -72.6345
rradius 40.7899
rwrist -3.88973
rhand -6.51821 -51.437
rfingers 7.12502
rthumb 19.3341 -80.4958
lclavicle 1.59028e-015 -3.57812e-014
lhumerus -30.1851 2.45925 78.7856
lradius 33.2454
lwrist 2.78755
lhand -23.3043 -10.9145
lfingers 7.12502
lthumb 3.14926 19.042
rfemur -28.9079 8.20094 17.1527
rtibia 11.6469
rfoot -18.653 -7.05891
rtoes -27.0317
lfemur -25.9182 -5.65615 -22.7303
ltibia 5.62718
lfoot -3.14135 -7.4135
ltoes -17.2023
320
root 11.6637 17.1465 17.4623 -152.311 0.0251606 179.037
lowerback -24.1694 -3.39846 -8.3515
upperback 1.85712 -2.08716 -1.1182
thorax 16.1433 -1.67221 2.66373
lowerneck -0.991086 -2.44988 -1.26353
upperneck 24.9011 -1.97142 4.63791
head 7.88133 0.195868 1.73761
rclavicle 5.1684e-015 -3.18055e-014
rhumerus -44.3267 -15.8035 -72.5311
rradius 40.6916
rwrist -3.7362
rhand -6.36922 -51.0865
rfingers 7.12502
rthumb 19.4774 -80.131
lclavicle 5.1684e-015 -3.18055e-014
lhumerus -30.1513 2.4366 78.7859
lradius 33.2908
lwrist 2.82504
lhand -23.4397 -10.6775
lfingers 7.12502
lthumb 3.01848 19.2808
rfemur -28.5748 8.27095 17.0768
rtibia 10.9966
rfoot -18.4678 -7.02985
rtoes -26.5659
lfemur -25.9345 -5.64261 -22.7808
ltibia 5.66225
lfoot -3.21155 -7.44648
ltoes -16.8622
321
root 11.6617 17.15 17.4567 -152.225 0.112299 179.051
lowerback -24.3648 -3.14597 -8.20906
upperback 1.79237 -1.77156 -1.18739
thorax 16.1299 -1.51678 2.61931
lowerneck -1.03915 -2.61423 -0.971956
upperneck 25.0549 -2.17232 4.52426
head 7.94443 0.133026 1.63971
rclavicle 1.51076e-014 4.05521e-014
rhumerus -44.4037 -16.3077 -72.3928
rradius 40.6312
rwrist -3.67167
rhand -6.25357 -50.7759
rfingers 7.12502
rthumb 19.5886 -79.809
lclavicle 1.51076e-014 4.05521e-014
lhumerus -29.9829 2.34238 78.8113
lradius 33.2016
lwrist 2.73794
lhand -23.584 -10.6775
lfingers 7.12502
lthumb 2.87908 19.2828
rfemur -28.3582 8.37834 17.0092
rtibia 10.3368
rfoot -18.1327 -6.96296
rtoes -26.2898
lfemur -26.0153 -5.74349 -22.7411
ltibia 5.69158
lfoot -3.3087 -7.30663
ltoes -16.6889
322
root 11.6595 17.156 17.4536 -152.2 0.26045 179.051
lowerback -24.4054 -3.25251 -8.04449
upperback 1.72706 -1.51045 -1.1571
thorax 16.0631 -1.20335 2.71331
lowerneck -1.06593 -2.67773 -1.00367
upperneck 25.1234 -2.25054 4.55438
head 7.97571 0.103232 1.65159
rclavicle 1.59028e-015 1.35174e-014
rhumerus -44.2352 -16.3821 -72.3147
rradius 40.4792
rwrist -3.58155
rhand -6.44686 -50.7893
rfingers 7.12502
rthumb 19.4027 -79.8413
lclavicle 1.59028e-015 1.35174e-014
lhumerus -29.9455 2.74638 78.8849
lradius 33.1878
lwrist 2.56608
lhand -23.6733 -10.7104
lfingers 7.12502
lthumb 2.79289 19.2511
rfemur -28.1875 8.63982 16.8554
rtibia 9.83956
rfoot -17.8451 -6.93276
rtoes -25.5902
lfemur -26.0513 -5.84693 -22.736
ltibia 5.74057
lfoot -3.35194 -7.09728
ltoes -16.7541
323
root 11.6555 17.1652 17.4509 -152.236 0.394944 179.056
lowerback -24.3595 -3.22592 -7.99106
upperback 1.70324 -1.52682 -1.02788
thorax 16.01 -1.216 2.82926
lowerneck -1.05852 -2.65834 -1.28712
upperneck 25.0738 -2.22379 4.61902
head 7.96079 0.090002 1.72239
rclavicle 9.93923e-015 1.98785e-014
rhumerus -43.7805 -16.1273 -72.3351
rradius 40.257
rwrist -3.44982
rhand -6.65758 -51.0269
rfingers 7.12502
rthumb 19.2001 -80.0992
lclavicle 9.93923e-015 1.98785e-014
lhumerus -30.0166 3.57424 78.931
lradius 33.314
lwrist 2.67189
lhand -23.4034 -10.7627
lfingers 7.12502
lthumb 3.05349 19.1952
rfemur -27.9683 8.58446 16.823
rtibia 9.441
rfoot -17.5689 -6.75787
rtoes -25.9663
lfemur -26.0276 -5.96267 -22.7343
ltibia 5.77565
lfoot -3.37558 -6.8228
ltoes -17.1459
324
root 11.6503 17.176 17.4502 -152.246 0.49768 179.164
lowerback -24.2667 -3.05426 -7.75757
upperback 1.62115 -1.39135 -0.989189
thorax 15.8304 -1.1329 2.79786
lowerneck -1.01471 -2.79948 -1.18688
upperneck 25.0068 -2.41314 4.50881
head 7.93413 -0.00406777 1.65385
rclavicle -1.98785e-014 -4.69132e-014
rhumerus -43.5882 -16.2255 -72.2951
rradius 40.1041
rwrist -3.36487
rhand -6.71492 -51.1136
rfingers 7.12502
rthumb 19.145 -80.1913
lclavicle -1.98785e-014 -4.69132e-014
lhumerus -30.0715 3.91188 78.9347
lradius 33.3768
lwrist 2.82464
lhand -23.293 -10.8164
lfingers 7.12502
lthumb 3.16016 19.1399
rfemur -27.7645 8.15999 17.0322
rtibia 9.01853
rfoot -17.2314 -6.32058
rtoes -27.3548
lfemur -26.0462 -6.06882 -22.5955
ltibia 5.79339
lfoot -3.47966 -6.50316
ltoes -18.1966
325
root 11.6468 17.1851 17.4521 -152.214 0.597415 179.347
lowerback -23.9963 -2.84119 -7.44078
upperback 1.44375 -1.24159 -0.955874
thorax 15.4285 -1.0263 2.72325
lowerneck -1.01089 -2.85471 -0.990109
upperneck 24.9888 -2.4765 4.38256
head 7.92531 -0.0253039 1.57355
rclavicle 1.35174e-014 4.77083e-014
rhumerus -43.5962 -16.305 -72.1996
rradius 40.0356
rwrist -3.16658
rhand -6.67401 -51.2465
rfingers 7.12502
rthumb 19.1843 -80.3203
lclavicle 1.35174e-014 4.77083e-014
lhumerus -30.2608 4.11876 78.9347
lradius 33.3842
lwrist 2.78701
lhand -23.2792 -10.9241
lfingers 7.12502
lthumb 3.17344 19.032
rfemur -27.7595 7.78467 17.3069
rtibia 8.8561
rfoot -17.0294 -5.80735
rtoes -27.9825
lfemur -26.1774 -6.12494 -22.3581
ltibia 5.93472
lfoot -3.65312 -6.23515
ltoes -19.3222
326
root 11.6443 17.1906 17.4526 -152.17 0.678393 179.424
lowerback -24.3155 -2.69991 -7.35208
upperback 1.58787 -1.07229 -0.862619
thorax 15.7694 -0.968674 2.83489
lowerneck -1.09516 -2.7601 -0.898638
upperneck 24.6312 -2.39369 4.31874
head 7.81486 -0.0106735 1.53411
rclavicle 7.95139e-016 9.54166e-015
rhumerus -43.2195 -16.4448 -72.1443
rradius 40.1999
rwrist -2.96783
rhand -6.52948 -51.6136
rfingers 7.12502
rthumb 19.3233 -80.6735
lclavicle 7.95139e-016 9.54166e-015
lhumerus -29.9347 4.27658 79.1476
lradius 33.3368
lwrist 2.94738
lhand -22.9449 -10.9187
lfingers 7.12502
lthumb 3.49627 19.0323
rfemur -27.8583 7.47711 17.432
rtibia 8.90667
rfoot -17.0044 -5.40488
rtoes -27.9795
lfemur -26.3188 -6.16165 -22.2725
ltibia 6.11024
lfoot -3.75141 -6.11993
ltoes -19.7587
